<?xml version="1.0" standalone="no"?>
<!DOCTYPE svg PUBLIC "-//W3C//DTD SVG 20010904//EN"
 "http://www.w3.org/TR/2001/REC-SVG-20010904/DTD/svg10.dtd">
<svg version="1.0" xmlns="http://www.w3.org/2000/svg"
 width="700.000000pt" height="700.000000pt" viewBox="0 0 700.000000 700.000000"
 preserveAspectRatio="xMidYMid meet">
<metadata>
Created by potrace 1.11, written by Peter Selinger 2001-2013
</metadata>
<g transform="translate(0.000000,700.000000) scale(0.100000,-0.100000)"
fill="#000000" stroke="none">
<svg xmlns="http://www.w3.org/2000/svg" width="32" height="32" viewBox="0 0 32 32"><path fill="#888888" d="M16 19a6.99 6.99 0 0 1-5.833-3.129l1.666-1.107a5 5 0 0 0 8.334 0l1.666 1.107A6.99 6.99 0 0 1 16 19m4-11a2 2 0 1 0 2 2a1.98 1.98 0 0 0-2-2m-8 0a2 2 0 1 0 2 2a1.98 1.98 0 0 0-2-2"/><path fill="#888888" d="M17.736 30L16 29l4-7h6a1.997 1.997 0 0 0 2-2V6a1.997 1.997 0 0 0-2-2H6a1.997 1.997 0 0 0-2 2v14a1.997 1.997 0 0 0 2 2h9v2H6a4 4 0 0 1-4-4V6a3.999 3.999 0 0 1 4-4h20a3.999 3.999 0 0 1 4 4v14a4 4 0 0 1-4 4h-4.835Z"/></svg>

</g>
</svg>
